<svg width="153" height="42" viewBox="0 0 153 42" fill="none" xmlns="http://www.w3.org/2000/svg">
<path d="M28.65 20.75C28.4167 20.95 27.9333 21.1333 27.2 21.3C26.4667 21.4333 25.9667 21.5167 25.7 21.55C25.9667 22.8167 26.1 23.4333 26.1 23.4C26.3333 24.2333 26.5833 25.3833 26.85 26.85C27.45 30.2167 28.0667 33.0833 28.7 35.45C28.8667 36.2167 28.95 36.6667 28.95 36.8C28.95 37.1333 28.8167 37.4167 28.55 37.65C28.2833 37.8833 27.9667 38 27.6 38C27.2667 38 26.9667 37.8167 26.7 37.45C26.4333 37.1167 26.25 36.8167 26.15 36.55C25.85 35.4167 25.5667 34.15 25.3 32.75C25.0667 31.35 24.7833 29.6667 24.45 27.7C24.3167 26.8333 24.1 25.7667 23.8 24.5C23.5 23.2 23.3 22.35 23.2 21.95C21.2333 22.2167 17.85 22.75 13.05 23.55L10.15 24.05L9.1 27L7.7 31C6.53333 34.6333 5.7 37.4333 5.2 39.4C5.1 39.8667 4.9 40.25 4.6 40.55C4.3 40.8833 3.93333 41.05 3.5 41.05C3.13333 41.05 2.81667 40.95 2.55 40.75C2.31667 40.55 2.2 40.2667 2.2 39.9C2.2 39.5333 2.4 38.75 2.8 37.55C3.2 36.3833 3.43333 35.6833 3.5 35.45C3.63333 35.1167 3.9 34.35 4.3 33.15C4.73333 31.85 5.28333 30.2833 5.95 28.45C6.65 26.5833 7.11667 25.35 7.35 24.75C5.65 25.15 4.38333 25.4667 3.55 25.7C2.28333 26.0333 1.5 26.2 1.2 26.2C0.833333 26.2 0.55 26.0667 0.35 25.8C0.183333 25.5 0.1 25.1833 0.1 24.85C0.1 24.45 0.2 24.1833 0.4 24.05C0.6 23.8833 0.933333 23.7333 1.4 23.6C2.66667 23.3 4 23 5.4 22.7C6.83333 22.4 7.81667 22.2 8.35 22.1C8.68333 21.1333 8.93333 20.3167 9.1 19.65C9.23333 19.2167 9.4 18.6833 9.6 18.05C9.83333 17.3833 10.0833 16.5667 10.35 15.6L11.1 13.05C12.3667 8.58333 13.1 6.03333 13.3 5.4C13.4667 4.93333 13.6167 4.56667 13.75 4.3C13.9167 4.03333 14.1333 3.9 14.4 3.9C15.0667 3.9 15.6667 4 16.2 4.2C16.2667 4.13333 16.3667 4 16.5 3.8C16.6667 3.56667 16.8333 3.41666 17 3.35C17.2 3.25 17.45 3.2 17.75 3.2C18.35 3.2 19.0333 3.88333 19.8 5.25C20.6 6.61667 21.3667 8.23333 22.1 10.1C22.5333 11.2 23.0833 12.85 23.75 15.05C24.4167 17.2167 24.85 18.65 25.05 19.35C25.55 19.2833 25.9667 19.2 26.3 19.1C26.6667 18.9667 26.9 18.8833 27 18.85C27.1667 18.7833 27.35 18.6667 27.55 18.5C27.75 18.3333 27.9333 18.2167 28.1 18.15C28.2667 18.05 28.45 18.05 28.65 18.15C29.0833 18.35 29.3 18.7667 29.3 19.4C29.3 19.6333 29.2333 19.8833 29.1 20.15C29 20.4167 28.85 20.6167 28.65 20.75ZM20.2 11.3C19.7333 10.0667 19.1333 8.8 18.4 7.5C17.6667 6.2 17.05 5.38333 16.55 5.05L16 6.35C15.3667 7.61667 14.8833 8.76667 14.55 9.8C13.75 12.2 12.4833 16.1667 10.75 21.7L16.6 20.7L21.4 19.95L22.75 19.75C22.5833 19.15 22.2333 17.9 21.7 16C21.1667 14.0667 20.6667 12.5 20.2 11.3ZM57.0535 19.15C56.1202 19.25 53.9035 19.6833 50.4035 20.45C46.9368 21.1833 44.3868 21.7667 42.7535 22.2C42.7535 22.9333 42.7535 24.4833 42.7535 26.85C42.7868 29.1833 42.8368 31.1667 42.9035 32.8C42.9368 33.4333 43.0035 34.1333 43.1035 34.9C43.2368 35.6667 43.3202 36.2167 43.3535 36.55C43.5535 37.75 43.6535 38.4667 43.6535 38.7C43.6535 39.0667 43.4702 39.6 43.1035 40.3C42.7702 41.0333 42.4868 41.4 42.2535 41.4C42.0202 41.4 41.8035 41.2833 41.6035 41.05C41.4035 40.8167 41.2702 40.5333 41.2035 40.2C40.8702 38.7 40.6368 36.2667 40.5035 32.9C40.3368 28.8 40.2535 25.6 40.2535 23.3C40.0535 23.3333 39.7202 23.4 39.2535 23.5C38.8202 23.5667 38.4368 23.6167 38.1035 23.65C37.7702 23.65 37.4202 23.5667 37.0535 23.4C36.6868 23.2333 36.5035 23.0333 36.5035 22.8C36.5035 22.5333 36.5868 22.3333 36.7535 22.2C36.9535 22.0667 37.1702 21.9667 37.4035 21.9C37.6368 21.8 37.8035 21.7333 37.9035 21.7C39.1035 21.2 39.9035 20.8833 40.3035 20.75L39.9035 9.6C37.4368 10 35.6202 10.2 34.4535 10.2C33.1535 10.2 32.2535 9.88333 31.7535 9.25C31.2868 8.61666 31.0535 8.03333 31.0535 7.5C31.0535 7.2 31.2702 7.05 31.7035 7.05C31.7702 7.05 32.1535 7.16667 32.8535 7.4C33.5868 7.63333 34.2202 7.75 34.7535 7.75C35.8202 7.75 37.5202 7.58333 39.8535 7.25C39.8535 7.18333 39.8702 6.93333 39.9035 6.5C39.9368 6.03333 40.0868 5.61666 40.3535 5.25C40.5202 4.95 40.6702 4.75 40.8035 4.65C40.9368 4.55 41.0868 4.5 41.2535 4.5C41.8868 4.5 42.2035 5.2 42.2035 6.6C42.6702 6.5 43.7202 6.3 45.3535 6C47.0202 5.7 48.9202 5.41667 51.0535 5.15C53.1869 4.88333 55.0369 4.75 56.6035 4.75C57.8702 4.75 58.5035 5 58.5035 5.5C58.5035 5.9 58.3535 6.41667 58.0535 7.05C57.7869 7.68333 57.4702 8 57.1035 8C56.9702 8 56.8369 7.93333 56.7035 7.8C56.5702 7.63333 56.4702 7.53333 56.4035 7.5C56.1035 7.36667 55.6702 7.3 55.1035 7.3C54.0702 7.3 52.0035 7.51667 48.9035 7.95C45.8368 8.38333 43.6202 8.75 42.2535 9.05L42.6035 19.9C44.4035 19.4333 47.1702 18.8 50.9035 18C54.6368 17.2 56.8202 16.8 57.4535 16.8C57.7202 16.8 57.9035 16.85 58.0035 16.95C58.1035 17.0167 58.1535 17.1833 58.1535 17.45C58.1535 18.4833 57.7869 19.05 57.0535 19.15ZM93.6445 5.7C93.5445 5.7 93.1945 5.61667 92.5945 5.45C92.0279 5.25 91.4945 5.15 90.9945 5.15C89.3945 5.15 87.5779 5.23333 85.5445 5.4C83.5112 5.56667 81.8279 5.8 80.4945 6.1C80.5945 7.7 80.6779 10.2333 80.7445 13.7C80.8445 17.1333 80.8945 20.75 80.8945 24.55C80.8945 26.15 80.8612 27.9333 80.7945 29.9C80.7612 31.8667 80.6945 33.0833 80.5945 33.55C80.5279 33.9167 80.2945 34.2167 79.8945 34.45C79.5279 34.6833 79.1445 34.8 78.7445 34.8C78.5112 34.8 78.3112 34.7 78.1445 34.5C77.9779 34.3 77.8945 34.0667 77.8945 33.8L77.9445 32.05C78.1445 29.45 78.2445 26.25 78.2445 22.45C78.2445 19.7167 78.2112 16.6 78.1445 13.1C78.0779 9.56667 78.0112 7.38333 77.9445 6.55C71.2779 7.28333 66.8279 7.96667 64.5945 8.6C64.1945 8.73333 63.7445 8.8 63.2445 8.8C62.6445 8.8 62.0612 8.58333 61.4945 8.15C60.9279 7.71667 60.6445 7.25 60.6445 6.75C60.6445 6.41667 60.7445 6.18333 60.9445 6.05C61.1445 5.88333 61.3945 5.8 61.6945 5.8C63.5945 5.7 65.1945 5.6 66.4945 5.5C69.4612 5.23333 73.1945 4.81666 77.6945 4.25C77.6945 3.21667 77.7112 2.48333 77.7445 2.05C77.8112 1.61666 77.9279 1.4 78.0945 1.4C78.7279 1.4 79.2945 1.65 79.7945 2.15C79.8945 2.25 79.9779 2.51666 80.0445 2.95C80.1112 3.35 80.1445 3.61667 80.1445 3.75C80.8779 3.71667 82.0779 3.55 83.7445 3.25C87.3445 2.68333 89.8112 2.4 91.1445 2.4C92.7445 2.4 93.8112 2.6 94.3445 3C94.7112 3.26666 94.8945 3.75 94.8945 4.45C94.8945 4.71667 94.7779 5 94.5445 5.3C94.3112 5.56667 94.0112 5.7 93.6445 5.7ZM124.548 20.75C124.315 20.95 123.832 21.1333 123.098 21.3C122.365 21.4333 121.865 21.5167 121.598 21.55C121.865 22.8167 121.998 23.4333 121.998 23.4C122.232 24.2333 122.482 25.3833 122.748 26.85C123.348 30.2167 123.965 33.0833 124.598 35.45C124.765 36.2167 124.848 36.6667 124.848 36.8C124.848 37.1333 124.715 37.4167 124.448 37.65C124.182 37.8833 123.865 38 123.498 38C123.165 38 122.865 37.8167 122.598 37.45C122.332 37.1167 122.148 36.8167 122.048 36.55C121.748 35.4167 121.465 34.15 121.198 32.75C120.965 31.35 120.682 29.6667 120.348 27.7C120.215 26.8333 119.998 25.7667 119.698 24.5C119.398 23.2 119.198 22.35 119.098 21.95C117.132 22.2167 113.748 22.75 108.948 23.55L106.048 24.05L104.998 27L103.598 31C102.432 34.6333 101.598 37.4333 101.098 39.4C100.998 39.8667 100.798 40.25 100.498 40.55C100.198 40.8833 99.8318 41.05 99.3984 41.05C99.0318 41.05 98.7151 40.95 98.4484 40.75C98.2151 40.55 98.0984 40.2667 98.0984 39.9C98.0984 39.5333 98.2984 38.75 98.6984 37.55C99.0984 36.3833 99.3318 35.6833 99.3984 35.45C99.5318 35.1167 99.7984 34.35 100.198 33.15C100.632 31.85 101.182 30.2833 101.848 28.45C102.548 26.5833 103.015 25.35 103.248 24.75C101.548 25.15 100.282 25.4667 99.4484 25.7C98.1818 26.0333 97.3984 26.2 97.0984 26.2C96.7318 26.2 96.4484 26.0667 96.2484 25.8C96.0818 25.5 95.9984 25.1833 95.9984 24.85C95.9984 24.45 96.0984 24.1833 96.2984 24.05C96.4984 23.8833 96.8318 23.7333 97.2984 23.6C98.5651 23.3 99.8984 23 101.298 22.7C102.732 22.4 103.715 22.2 104.248 22.1C104.582 21.1333 104.832 20.3167 104.998 19.65C105.132 19.2167 105.298 18.6833 105.498 18.05C105.732 17.3833 105.982 16.5667 106.248 15.6L106.998 13.05C108.265 8.58333 108.998 6.03333 109.198 5.4C109.365 4.93333 109.515 4.56667 109.648 4.3C109.815 4.03333 110.032 3.9 110.298 3.9C110.965 3.9 111.565 4 112.098 4.2C112.165 4.13333 112.265 4 112.398 3.8C112.565 3.56667 112.732 3.41666 112.898 3.35C113.098 3.25 113.348 3.2 113.648 3.2C114.248 3.2 114.932 3.88333 115.698 5.25C116.498 6.61667 117.265 8.23333 117.998 10.1C118.432 11.2 118.982 12.85 119.648 15.05C120.315 17.2167 120.748 18.65 120.948 19.35C121.448 19.2833 121.865 19.2 122.198 19.1C122.565 18.9667 122.798 18.8833 122.898 18.85C123.065 18.7833 123.248 18.6667 123.448 18.5C123.648 18.3333 123.832 18.2167 123.998 18.15C124.165 18.05 124.348 18.05 124.548 18.15C124.982 18.35 125.198 18.7667 125.198 19.4C125.198 19.6333 125.132 19.8833 124.998 20.15C124.898 20.4167 124.748 20.6167 124.548 20.75ZM116.098 11.3C115.632 10.0667 115.032 8.8 114.298 7.5C113.565 6.2 112.948 5.38333 112.448 5.05L111.898 6.35C111.265 7.61667 110.782 8.76667 110.448 9.8C109.648 12.2 108.382 16.1667 106.648 21.7L112.498 20.7L117.298 19.95L118.648 19.75C118.482 19.15 118.132 17.9 117.598 16C117.065 14.0667 116.565 12.5 116.098 11.3ZM139.302 36.65C137.135 36.65 135.419 36.4667 134.152 36.1C132.885 35.7667 132.252 35.2833 132.252 34.65C132.252 34.3167 132.485 33.7667 132.952 33C133.452 32.2 133.835 31.8 134.102 31.8C134.502 31.8 134.702 31.8833 134.702 32.05C134.702 32.15 134.635 32.2667 134.502 32.4C134.402 32.5333 134.352 32.6667 134.352 32.8C134.352 32.9 134.552 33.05 134.952 33.25C135.385 33.45 136.035 33.6333 136.902 33.8C137.769 33.9667 138.819 34.05 140.052 34.05C142.019 34.05 143.735 33.6667 145.202 32.9C146.702 32.1333 147.852 31.1667 148.652 30C149.452 28.8333 149.852 27.7 149.852 26.6C149.852 25.1667 149.152 23.9333 147.752 22.9C146.385 21.8667 144.169 20.8833 141.102 19.95C138.135 18.9833 135.835 18.1833 134.202 17.55C132.602 16.8833 131.302 16.0833 130.302 15.15C129.302 14.1833 128.802 13.0167 128.802 11.65C128.802 9.81667 129.835 8.01667 131.902 6.25C133.969 4.45 136.519 3 139.552 1.9C142.585 0.766664 145.402 0.199998 148.002 0.199998C149.335 0.199998 150.052 0.466665 150.152 1C150.252 1.53333 150.302 2.13333 150.302 2.8C150.302 3.3 150.119 3.55 149.752 3.55C149.585 3.55 149.385 3.5 149.152 3.4C148.952 3.26666 148.769 3.16667 148.602 3.1C148.402 3.03333 148.169 2.96666 147.902 2.9C147.635 2.83333 147.252 2.8 146.752 2.8C145.019 2.8 142.935 3.25 140.502 4.15C138.069 5.05 135.952 6.16667 134.152 7.5C132.385 8.83333 131.502 10.1167 131.502 11.35C131.502 12.35 131.902 13.2167 132.702 13.95C133.535 14.6833 134.635 15.3167 136.002 15.85C137.369 16.35 139.302 16.9833 141.802 17.75C145.469 18.8167 148.169 20.0167 149.902 21.35C151.669 22.6833 152.552 24.3167 152.552 26.25C152.552 27.9167 151.985 29.5667 150.852 31.2C149.752 32.8 148.185 34.1 146.152 35.1C144.152 36.1333 141.869 36.65 139.302 36.65Z" fill="#127CB8"/>
</svg>
